<svg xmlns="http://www.w3.org/2000/svg" version="1.1" xmlns:xlink="http://www.w3.org/1999/xlink" xmlns:svgjs="http://svgjs.dev/svgjs" width="230" height="177.63"><g><svg viewBox="0 0 395.52 135.53121665510454" height="135.53121665510454" width="230" xmlns="http://www.w3.org/2000/svg" version="1.1" xmlns:xlink="http://www.w3.org/1999/xlink" xmlns:svgjs="http://svgjs.com/svgjs" x="0" y="21.049391672447726" viewbox="0 0 230 177.63"><g><svg viewBox="0 0 625.9406570034125 214.48851839999998" height="135.53121665510454" width="395.52"><g transform="matrix(1,0,0,1,230.42065700341257,48.361596078218724)"><svg viewBox="0 0 395.52 117.76532624356253" height="117.76532624356253" width="395.52"><g><svg viewBox="0 0 395.52 117.76532624356253" height="117.76532624356253" width="395.52"><g><svg viewBox="0 0 395.52 67.48732867132865" height="67.48732867132865" width="395.52"><g transform="matrix(1,0,0,1,0,0)"><svg width="395.52" viewBox="1.75 -36.599998474121094 214.49000549316406 36.599998474121094" height="67.48732867132865" data-palette-color="#c9efc7"><path d="M1.75 0L13.85 0 13.85-3.95 9.85-3.95 9.85-15.65 28.75-15.65 28.75-3.95 24.75-3.95 24.75 0 36.85 0 36.85-3.95 32.9-3.95 32.9-31.05 36.85-31.05 36.85-35 24.75-35 24.75-31.05 28.75-31.05 28.75-19.6 9.85-19.6 9.85-31.05 13.85-31.05 13.85-35 1.75-35 1.75-31.05 5.7-31.05 5.7-3.95 1.75-3.95 1.75 0ZM40.35 0L65.4 0 65.4-7.7 61.45-7.7 61.45-3.95 47.3-3.95 47.3-15.65 62.75-15.65 62.75-19.6 47.3-19.6 47.3-31.05 60.75-31.05 60.75-27.3 64.7-27.3 64.7-35 40.35-35 40.35-31.05 43.15-31.05 43.15-3.95 40.35-3.95 40.35 0ZM68.9 0L80 0 80-3.95 77.15-3.95Q78.55-7.25 79.25-8.9 79.95-10.55 81.35-13.85L81.35-13.85 92.35-13.85Q93.4-11.35 94.42-8.9 95.45-6.45 96.5-3.95L96.5-3.95 93.7-3.95 93.7 0 104.8 0 104.8-3.95 100.7-3.95Q97.25-12.2 93.77-20.28 90.3-28.35 86.85-36.6L86.85-36.6Q83.4-28.35 79.92-20.28 76.45-12.2 73-3.95L73-3.95 68.9-3.95 68.9 0ZM86.3-25.75L86.3-25.75Q86.35-25.9 86.47-26.25 86.6-26.6 86.8-27.4L86.8-27.4 87.3-25.75 90.65-17.8 83.05-17.8Q83.75-19.55 84.57-21.68 85.4-23.8 86.3-25.75ZM108.29 0L133.34 0 133.34-7.7 129.39-7.7 129.39-3.95 115.24-3.95 115.24-31.05 119.39-31.05 119.39-35 108.29-35 108.29-31.05 111.09-31.05 111.09-3.95 108.29-3.95 108.29 0ZM136.84 0L148.94 0 148.94-3.95 144.94-3.95 144.94-31.05 148.94-31.05 148.94-35 136.84-35 136.84-31.05 140.79-31.05 140.79-3.95 136.84-3.95 136.84 0ZM152.44 0L164.54 0 164.54-3.95 159.39-3.95 159.39-15.65 174.84-15.65 174.84-19.6 159.39-19.6 159.39-31.05 172.84-31.05 172.84-27.3 176.79-27.3 176.79-35 152.44-35 152.44-31.05 155.24-31.05 155.24-3.95 152.44-3.95 152.44 0ZM192.39 0L204.49 0 204.49-3.95 200.84-3.95 200.84-13.45Q203.44-17.85 206.01-22.25 208.59-26.65 211.19-31.05L211.19-31.05 216.24-31.05 216.24-35 204.14-35 204.14-31.05 206.09-31.05 198.89-18.85 198.29-17.3 198.24-17.3 197.69-18.85Q195.84-21.9 194.04-24.95 192.24-28 190.39-31.05L190.39-31.05 192.39-31.05 192.39-35 180.29-35 180.29-31.05 185.34-31.05Q187.94-26.65 190.51-22.28 193.09-17.9 195.74-13.5L195.74-13.5 195.74-3.95 192.39-3.95 192.39 0Z" opacity="1" transform="matrix(1,0,0,1,0,0)" fill="#c9efc7" class="undefined-text-0" data-fill-palette-color="primary" id="text-0"></path></svg></g></svg></g><g transform="matrix(1,0,0,1,0,83.41946727474124)"><svg viewBox="0 0 232.209792 34.3458589688213" height="34.3458589688213" width="232.209792"><g transform="matrix(1,0,0,1,0,0)"><svg width="232.209792" viewBox="2.5900001525878906 -37.5 256.80999755859375 37.9900016784668" height="34.3458589688213" data-palette-color="#c9efc7"><path d="M30.86-18.24L30.86-4.61Q28.93-2.1 25.51-0.81 22.09 0.49 17.75 0.49L17.75 0.49Q13.28 0.49 9.84-1.54 6.4-3.56 4.53-7.34 2.66-11.11 2.59-16.14L2.59-16.14 2.59-18.92Q2.59-26.98 6.45-31.51 10.3-36.04 17.21-36.04L17.21-36.04Q23.14-36.04 26.64-33.11 30.13-30.18 30.83-24.66L30.83-24.66 24.78-24.66Q23.75-31.08 17.33-31.08L17.33-31.08Q13.18-31.08 11.02-28.09 8.86-25.1 8.79-19.31L8.79-19.31 8.79-16.58Q8.79-10.82 11.22-7.63 13.65-4.44 17.97-4.44L17.97-4.44Q22.71-4.44 24.71-6.59L24.71-6.59 24.71-13.55 17.38-13.55 17.38-18.24 30.86-18.24ZM48.7 0.49L48.7 0.49Q43.06 0.49 39.56-3.06 36.06-6.62 36.06-12.52L36.06-12.52 36.06-13.26Q36.06-17.21 37.58-20.32 39.11-23.44 41.87-25.17 44.63-26.9 48.02-26.9L48.02-26.9Q53.42-26.9 56.36-23.46 59.3-20.02 59.3-13.72L59.3-13.72 59.3-11.33 42.04-11.33Q42.31-8.06 44.22-6.15 46.14-4.25 49.05-4.25L49.05-4.25Q53.12-4.25 55.69-7.54L55.69-7.54 58.88-4.49Q57.3-2.12 54.65-0.82 52 0.49 48.7 0.49ZM48-22.14L48-22.14Q45.55-22.14 44.05-20.43 42.55-18.73 42.14-15.67L42.14-15.67 53.44-15.67 53.44-16.11Q53.24-19.09 51.85-20.62 50.46-22.14 48-22.14ZM63.81-26.42L69.4-26.42 69.58-23.36Q72.5-26.9 77.27-26.9L77.27-26.9Q85.52-26.9 85.66-17.46L85.66-17.46 85.66 0 79.73 0 79.73-17.11Q79.73-19.63 78.64-20.84 77.56-22.05 75.09-22.05L75.09-22.05Q71.5-22.05 69.75-18.8L69.75-18.8 69.75 0 63.81 0 63.81-26.42ZM93.21-32.84L99.14-32.84 99.14-26.42 103.8-26.42 103.8-22.02 99.14-22.02 99.14-7.28Q99.14-5.76 99.74-5.09 100.33-4.42 101.87-4.42L101.87-4.42Q102.9-4.42 103.95-4.66L103.95-4.66 103.95-0.07Q101.92 0.49 100.04 0.49L100.04 0.49Q93.21 0.49 93.21-7.06L93.21-7.06 93.21-22.02 88.86-22.02 88.86-26.42 93.21-26.42 93.21-32.84ZM114.64-37.5L114.64 0 108.71 0 108.71-37.5 114.64-37.5ZM132.73 0.49L132.73 0.49Q127.09 0.49 123.58-3.06 120.08-6.62 120.08-12.52L120.08-12.52 120.08-13.26Q120.08-17.21 121.61-20.32 123.13-23.44 125.89-25.17 128.65-26.9 132.04-26.9L132.04-26.9Q137.44-26.9 140.38-23.46 143.32-20.02 143.32-13.72L143.32-13.72 143.32-11.33 126.06-11.33Q126.33-8.06 128.25-6.15 130.16-4.25 133.07-4.25L133.07-4.25Q137.15-4.25 139.71-7.54L139.71-7.54 142.91-4.49Q141.32-2.12 138.67-0.82 136.02 0.49 132.73 0.49ZM132.02-22.14L132.02-22.14Q129.58-22.14 128.08-20.43 126.57-18.73 126.16-15.67L126.16-15.67 137.46-15.67 137.46-16.11Q137.27-19.09 135.88-20.62 134.48-22.14 132.02-22.14ZM181.92-11.57L188.07-11.57Q187.53-5.88 183.87-2.7 180.21 0.49 174.13 0.49L174.13 0.49Q169.88 0.49 166.65-1.53 163.41-3.54 161.65-7.25 159.89-10.96 159.82-15.87L159.82-15.87 159.82-19.19Q159.82-24.22 161.6-28.05 163.39-31.88 166.72-33.96 170.05-36.04 174.42-36.04L174.42-36.04Q180.3-36.04 183.89-32.84 187.48-29.64 188.07-23.8L188.07-23.8 181.92-23.8Q181.48-27.64 179.68-29.33 177.89-31.03 174.42-31.03L174.42-31.03Q170.39-31.03 168.23-28.09 166.07-25.15 166.02-19.46L166.02-19.46 166.02-16.31Q166.02-10.55 168.09-7.52 170.15-4.49 174.13-4.49L174.13-4.49Q177.77-4.49 179.6-6.13 181.43-7.76 181.92-11.57L181.92-11.57ZM214.85 0L208.79 0Q208.4-0.76 208.11-2.47L208.11-2.47Q205.28 0.49 201.18 0.49L201.18 0.49Q197.2 0.49 194.68-1.78 192.17-4.05 192.17-7.4L192.17-7.4Q192.17-11.62 195.3-13.88 198.44-16.14 204.28-16.14L204.28-16.14 207.91-16.14 207.91-17.87Q207.91-19.92 206.77-21.15 205.62-22.39 203.28-22.39L203.28-22.39Q201.25-22.39 199.96-21.37 198.66-20.36 198.66-18.8L198.66-18.8 192.73-18.8Q192.73-20.97 194.17-22.86 195.61-24.76 198.09-25.83 200.57-26.9 203.62-26.9L203.62-26.9Q208.26-26.9 211.02-24.57 213.77-22.24 213.85-18.02L213.85-18.02 213.85-6.1Q213.85-2.54 214.85-0.42L214.85-0.42 214.85 0ZM202.27-4.27L202.27-4.27Q204.03-4.27 205.58-5.13 207.13-5.98 207.91-7.42L207.91-7.42 207.91-12.4 204.72-12.4Q201.42-12.4 199.76-11.25 198.1-10.11 198.1-8.01L198.1-8.01Q198.1-6.3 199.24-5.29 200.37-4.27 202.27-4.27ZM233.91-26.56L233.89-21Q232.72-21.19 231.47-21.19L231.47-21.19Q227.39-21.19 225.98-18.07L225.98-18.07 225.98 0 220.05 0 220.05-26.42 225.71-26.42 225.86-23.46Q228-26.9 231.81-26.9L231.81-26.9Q233.08-26.9 233.91-26.56L233.91-26.56ZM248.8 0.49L248.8 0.49Q243.16 0.49 239.66-3.06 236.16-6.62 236.16-12.52L236.16-12.52 236.16-13.26Q236.16-17.21 237.68-20.32 239.21-23.44 241.97-25.17 244.73-26.9 248.12-26.9L248.12-26.9Q253.52-26.9 256.46-23.46 259.4-20.02 259.4-13.72L259.4-13.72 259.4-11.33 242.14-11.33Q242.41-8.06 244.32-6.15 246.24-4.25 249.14-4.25L249.14-4.25Q253.22-4.25 255.79-7.54L255.79-7.54 258.98-4.49Q257.4-2.12 254.75-0.82 252.1 0.49 248.8 0.49ZM248.1-22.14L248.1-22.14Q245.65-22.14 244.15-20.43 242.65-18.73 242.24-15.67L242.24-15.67 253.54-15.67 253.54-16.11Q253.34-19.09 251.95-20.62 250.56-22.14 248.1-22.14Z" opacity="1" transform="matrix(1,0,0,1,0,0)" fill="#c9efc7" class="undefined-text-1" data-fill-palette-color="secondary" id="text-1"></path></svg></g></svg></g></svg></g></svg></g><g><svg viewBox="0 0 214.48851839999998 214.48851839999998" height="214.48851839999998" width="214.48851839999998"><g><svg></svg></g><g id="icon-0"><svg viewBox="0 0 214.48851839999998 214.48851839999998" height="214.48851839999998" width="214.48851839999998"><g><rect width="195.02567136" height="195.02567136" x="9.731423519999993" y="9.731423519999993" fill="#31c48d" data-fill-palette-color="accent"></rect><rect width="195.02567136" height="195.02567136" x="19.462847039999993" y="-5.329070518200751e-15" fill="#31c48d" opacity="0.5" data-fill-palette-color="accent"></rect></g><g transform="matrix(1,0,0,1,27.80406719999999,34.621744231653025)"><svg viewBox="0 0 158.880384 145.24502993669392" height="145.24502993669392" width="158.880384"><g><svg xmlns="http://www.w3.org/2000/svg" xmlns:xlink="http://www.w3.org/1999/xlink" version="1.1" x="0" y="0" viewBox="2.2243142127990723 6.324999809265137 95.55137634277344 87.35101318359375" enable-background="new 0 0 100 100" xml:space="preserve" height="145.24502993669392" width="158.880384" class="icon-a-0" data-fill-palette-color="background" id="a-0"><path d="M95.541 20.435C94.9 18.95 88.453 6.325 73.006 6.325S50 20.435 50 20.435s-7.578-14.11-23.027-14.11C11.525 6.325 5.1 18.95 4.459 20.435c-0.637 1.46-4.693 11.308 0 25.724C9.158 60.576 47.076 89.123 50 93.676c0.947-1.506 5.727-5.625 11.883-10.979 5.047 4.943 11.268 9.846 12.008 10.979 1.176-1.832 16.521-13.389 18.414-19.219 1.896-5.828 0.268-9.822 0-10.42-0.184-0.475-1.811-3.646-5.436-5.025 4.262-4.779 7.496-9.249 8.672-12.853C100.234 31.743 96.178 21.895 95.541 20.435zM81.555 78.207h-5.582v5.562h-4.182v-5.562h-5.582v-4.201h5.582v-5.561h4.182v5.561h5.582V78.207zM86.436 49.515c-0.844 2.616-3.068 5.809-6.016 9.229-4.387 1.275-6.529 5.293-6.529 5.293s-3.066-5.707-9.309-5.707c-6.26 0-8.855 5.109-9.123 5.707-0.248 0.598-1.895 4.592 0 10.42 0.453 1.4 1.668 3.111 3.254 4.945-4.531 3.975-7.994 6.982-8.713 8.113-2.326-3.645-32.666-26.465-36.436-38-3.748-11.533-0.516-19.422 0-20.597 0.514-1.195 5.662-11.286 18.021-11.286C43.943 17.632 50 28.918 50 28.918s6.057-11.286 18.414-11.286 17.508 10.091 18.021 11.286C86.951 30.093 90.184 37.982 86.436 49.515z" fill="#528265" data-fill-palette-color="background"></path></svg></g></svg></g></svg></g></svg></g></svg></g><defs></defs></svg></g></svg>